<?xml version="1.0" encoding="utf-8"?>
<!-- Generator: Adobe Illustrator 19.0.0, SVG Export Plug-In . SVG Version: 6.00 Build 0)  -->
<svg version="1.1" id="Layer_1" xmlns="http://www.w3.org/2000/svg" xmlns:xlink="http://www.w3.org/1999/xlink" x="0px" y="0px"
	 viewBox="0 0 500 500" style="enable-background:new 0 0 500 500;" xml:space="preserve">
<style type="text/css">
	.st0{fill:#F37021;}
	.st1{fill:#CC004C;}
	.st2{fill:#6460AA;}
	.st3{fill:#0089D0;}
	.st4{fill:#0DB14B;}
	.st5{fill:#FCB711;}
</style>
<g id="XMLID_17_">
	<path id="XMLID_19_" d="M277.6,260c-14.8,0-27.2,12.2-27.2,27.5c0,14.4,11.7,27.2,27.3,27.2c10.9,0,17.8-6.5,20.1-8.9L294,302
		c-1.3,1.5-6.8,7.4-16.3,7.4c-12.8,0-22-10.4-22-21.9c0-12.4,10-22.2,21.9-22.2c10.2,0,15.5,6.3,15.5,6.3c1,1.1,2.6,1.2,3.7,0.3
		c1.1-1,1.2-2.6,0.3-3.7C297.1,268.2,290.1,260,277.6,260z"/>
	<path id="XMLID_23_" d="M92.2,260C77.4,260,65,272.2,65,287.5c0,14.4,11.7,27.2,27.3,27.2c10.9,0,17.8-6.5,20.1-8.9l-3.8-3.7
		c-1.3,1.5-6.8,7.4-16.3,7.4c-12.8,0-22-10.4-22-21.9c0-12.4,10-22.2,21.9-22.2c10.2,0,15.5,6.3,15.5,6.3c1,1.1,2.6,1.2,3.7,0.3
		s1.2-2.6,0.3-3.7C111.8,268.2,104.7,260,92.2,260z"/>
	<path id="XMLID_26_" d="M148.4,260c-13.6,0-27.3,10.7-27.3,27.6c0,15.4,12.7,27.1,27.5,27.1c16.9,0,27.1-14.4,27.1-27.3
		C175.7,273.2,164.2,260,148.4,260z M148.4,265.3c12.8,0,22,10.8,22,22.1c0,10.1-7.8,22-21.8,22c-12.1,0-22.2-9.3-22.2-21.8
		C126.4,273.5,137.6,265.3,148.4,265.3z"/>
	<path id="XMLID_27_" d="M231.3,259.9c-1,0-2,0.6-2.3,1.6l-15.9,39l-15.9-39c-0.5-1.3-2-1.9-3.4-1.4c-0.8,0.3-1.4,1-1.6,1.9
		l-9.1,49.6c-0.3,1.4,0.6,2.8,2,3c1.4,0.3,2.8-0.6,3-2l0-0.1l7.5-41l15,36.7c0.5,1.3,2,1.9,3.4,1.4c0.6-0.3,1.2-0.8,1.4-1.4l15-36.8
		l7.9,42.7h5.2l-9.6-52.3C233.6,260.8,232.5,259.9,231.3,259.9z"/>
	<path id="XMLID_28_" d="M328.5,259.9c-1,0-1.9,0.6-2.3,1.6l-20.3,49.7c-0.5,1.3,0.1,2.8,1.4,3.4c1.3,0.5,2.8-0.1,3.4-1.4l17.9-43.9
		l18.4,45.1h5.6l-21.6-52.9C330.5,260.5,329.6,259.9,328.5,259.9z"/>
	<rect id="XMLID_29_" x="316.6" y="288.9" width="23" height="5.3"/>
	<path id="XMLID_30_" d="M376.5,260c-3.8,0-7.6,1-10.6,3.2c-3,2.2-5.1,5.9-5.1,10.3c0,3.9,1.4,7.1,3.9,9.3c2.4,2.2,5.6,3.7,9.5,5.7
		l0,0c4,2,7.5,3.6,9.7,5.3c2.2,1.7,3.3,3.3,3.3,6.3c0,2.9-1.1,5.1-3,6.6c-1.8,1.6-4.5,2.5-7.3,2.5c-6.8,0-11.9-4.4-13.7-6.2
		l-3.9,3.6c2.2,2.3,8.6,7.9,17.6,7.9c4,0,7.9-1.3,10.8-3.8c2.9-2.5,4.8-6.3,4.8-10.7c0-4.6-2.3-8.1-5.3-10.5c-3-2.4-6.8-4-10.6-5.9
		l0,0c-3.9-2-6.8-3.5-8.3-4.9c-1.6-1.4-2.2-2.6-2.2-5.4c0-2.9,1.1-4.7,3-6.1c1.9-1.4,4.6-2.1,7.5-2.1c5.1,0,9.4,2.8,9.4,2.8
		c1.2,0.9,2.8,0.6,3.7-0.6c0.9-1.2,0.6-2.8-0.6-3.7l-0.2-0.1C388.9,263.7,383.5,260,376.5,260z"/>
	<path id="XMLID_31_" d="M401.8,260.3c-1.5,0-2.7,1.1-2.7,2.6c0,1.5,1.1,2.7,2.6,2.7h0.1h30.5c1.5,0,2.7-1.1,2.7-2.6
		c0-1.5-1.1-2.7-2.6-2.7h-0.1H401.8z"/>
	<polygon id="XMLID_32_" points="414.6,263.7 414.6,266.1 414.6,311.8 414.6,314.3 419.6,314.3 419.6,311.8 419.6,266.1 
		419.6,263.7 	"/>
	<path id="XMLID_34_" class="st0" d="M213.7,200.6c-3.9,3.6-5.4,11.6,1.7,16.4l28.4,19.4L230,205
		C227.1,197.6,219.2,195.9,213.7,200.6"/>
	<path id="XMLID_35_" class="st1" d="M238.1,185.4c-4.6,0.1-11.5,5.6-8.5,13.9l14.2,33.5l5-35.2C250,188.8,243.4,184.8,238.1,185.4"
		/>
	<path id="XMLID_36_" class="st2" d="M251.1,196.2h2.7c0,0,1.4,0,1.6,0.7c-1.1,0.9-3.9,1-3.6,5.6l4.5,30.3l14.1-33.6
		c2.9-7.5-3.2-13.8-8.6-13.9c-0.3,0-0.5,0-0.8,0C256.3,185.2,250.8,188.7,251.1,196.2"/>
	<path id="XMLID_40_" class="st3" d="M269.9,205.3l-13.4,31.1l28.4-19.5c6.5-4.6,5.5-12,1.8-15.7c-1.5-1.7-4.4-3.1-7.3-3.1
		C275.9,198.1,272.1,199.9,269.9,205.3"/>
	<path id="XMLID_41_" class="st4" d="M281.8,221.2l-26.6,18.6h32.8c6.7,0,11.1-6.9,9.1-13.3c-1.3-4-5.1-7.1-9.5-7.1
		C285.7,219.4,283.7,219.9,281.8,221.2"/>
	<path id="XMLID_42_" class="st5" d="M212.9,239.8h32.3l-26.6-18.6c-6.2-3.9-13.1-1.6-15.6,4.9C200.9,233.6,206.2,239.8,212.9,239.8
		"/>
</g>
</svg>
